<?xml version="1.0" encoding="UTF-8"?>
<!DOCTYPE svg PUBLIC "-//W3C//DTD SVG 1.1//EN" "http://www.w3.org/Graphics/SVG/1.1/DTD/svg11.dtd">
<!-- Creator: CorelDRAW 2018 (64 Bit Versão de avaliação) -->
<svg xmlns="http://www.w3.org/2000/svg" xml:space="preserve" width="1602px" height="813px" version="1.1" style="shape-rendering:geometricPrecision; text-rendering:geometricPrecision; image-rendering:optimizeQuality; fill-rule:evenodd; clip-rule:evenodd"
viewBox="0 0 2050.75 1040.31"
 xmlns:xlink="http://www.w3.org/1999/xlink">
 <defs>
  <style type="text/css">
   <![CDATA[
    .fil1 {fill:#606062}
    .fil2 {fill:#00A859}
    .fil0 {fill:white}
    .fil3 {fill:#F58634;fill-rule:nonzero}
   ]]>
  </style>
 </defs>
 <g id="Camada_x0020_1">
  <metadata id="CorelCorpID_0Corel-Layer"/>
  <polygon class="fil0" points="0,1040.31 1376.41,1040.31 1376.41,0 0,0 "/>
  <path class="fil1" d="M395.12 897.72c22.78,25.71 5.51,29.98 47.75,49.53 22.09,10.23 53.4,14.18 77.67,18.59 67.08,12.2 129.71,9.93 113.7,-67.07 -31.12,-16.51 -43.12,-16.76 -85.91,-20.47 35.37,-22.24 71.94,-67.38 64.53,-130.64 96.09,1.74 149.04,1.4 217.45,-46.98l75.16 66.8c-8.36,30.67 -22.05,31.57 -12.47,71.52 67.21,36.47 197.64,-22.31 150.14,-128.96 -7.95,-17.85 -30.07,-53.19 -40.21,-62.29 13.61,-11 19.71,-20.19 33.82,-27.29 37.19,32.41 34.42,59.68 58.29,111.11 51.07,110.06 191.38,-23.57 25.99,-174.93 -29.24,-26.75 -33.57,-22.45 -51.79,-39.15l5.47 -76.02c54.5,-8.11 57.52,-34.71 119.33,-16.08 102.83,31 150.96,-115.49 105.58,-159.3 -27.86,-26.89 -50.51,-17.53 -88.34,-66.26 -29.63,-38.16 -23.59,-60.27 -70.91,-84.12 -84,-42.34 -162.68,-32.39 -227.59,31.48l-75.06 84.96c-43.44,49.79 -115.71,104.97 -170.19,139.3 -41.41,26.09 -165.7,86.3 -226.35,80.22 -36.21,-3.63 -74.38,-37.94 -100.75,-53.37 -34.44,-20.16 -64.55,-36.69 -106.46,-48.58 -67.6,-19.18 -231.72,-19.52 -218.71,64.91 37.52,50.95 115.04,0.49 186.18,27.08 41.87,15.65 104.93,62.61 128.28,95.72 32.34,45.88 -26.02,58.5 28.48,173.45 33.87,71.43 51.97,92.58 36.92,186.84z"/>
  <path class="fil0" d="M48.33 400.12c19.52,11.14 28.8,6.27 64.44,2.3 99.85,-11.13 175.75,37.37 237.46,109.01 39.94,46.35 17.18,46.53 13.27,107.25 -5.77,89.55 66.38,136.94 67.53,218.68 0.86,60.79 -8.89,74.82 53.04,89.29 32.83,7.67 93.17,24.59 120.97,1.63 -5.16,-39.89 -60.8,-17.74 -97.35,-24.7 -1.1,-49.2 8.42,-9.63 46.84,-58.06 10.37,-13.07 29.59,-45.83 30.58,-71.95 3.26,-85.55 -70.36,-92.5 -75.73,-135.41 44.99,-30.43 80.02,64.37 102.94,84.58 98.08,18.88 125.2,-13.95 193.14,-38.85 -10.14,-32.78 -23.69,-10.71 -21.41,-51.82 1.79,-32.35 1.74,-44.63 32.23,-47.72 9.8,49.77 -28.09,41.57 34.72,103.6 50.01,49.39 106.45,60.87 107.71,98.53 -17.33,6.71 -19.13,1.47 -33.74,5.87l-8.01 26.56c46.05,17.81 117.96,-15.32 114.15,-66 -3.83,-50.86 -63.14,-80.23 -66.8,-123.06 23.33,-23 48.12,-14.12 68.05,-63.94 13.05,-32.61 15.71,-86.24 6.43,-121.4 -1.25,-0.73 -3.35,-2.69 -4.1,-1.42l-33.44 -5.71c-86.81,-18.78 -97.05,-157.75 -95.43,-227.36 -38.08,22.89 -97.43,155.08 -382.31,257.74 -128.08,46.16 -127,-13.56 -222.91,-61.42 -62.93,-31.4 -154.71,-54.73 -225.66,-24.52l-26.61 18.3z"/>
  <path class="fil0" d="M1063.17 423.69c44.96,-8.96 84.09,-39.24 128.06,-28.88 10.55,2.49 63.84,30.66 84.34,-48.04 -13.5,-9.93 -28.42,-13.02 -35.82,-26.69 -4.01,-7.39 -5.11,-14.74 -2.48,-23.8 4.28,-14.76 8.59,-12.31 15.13,-24.84 -44.58,-14.55 -55.51,-41.07 -78.32,-82.66 -12.52,-22.83 -54.82,-76.42 -95.59,-57.51 -42.4,19.67 2.81,180.59 -15.32,292.42z"/>
  <path class="fil0" d="M1032.18 404.81c34.07,-87.48 -20.9,-198.44 12.51,-282.53 -84.32,6.3 -112.97,44.63 -113.63,133.79 -0.49,67.08 36.6,155.79 101.12,148.74z"/>
  <path class="fil0" d="M1052.15 592.19c57.2,51.65 62.04,172.02 108.05,145.05 8.37,-7.46 10.27,-5.8 13.88,-24.31 12.28,-63.04 -62.11,-148.12 -110.4,-170.12l-11.53 49.38z"/>
  <path class="fil2" d="M1137.65 244.05c8.48,-15.63 7.71,-20.02 2.02,-29.17 -0.61,-0.98 -2.45,-2.91 -3.14,-3.67 -27.06,-29.36 -65.28,50.53 1.12,32.84z"/>
  <path class="fil3" d="M1221.8 570.31c24.74,4.13 48.36,6.38 71.61,6.38 11.62,64.86 56.24,122.22 136.85,122.22 107.6,0 161.96,-100.1 161.96,-211.45 0,-4.88 -0.37,-9.75 -0.37,-14.62l-1.13 -25.87c33.74,-41.25 52.49,-86.61 52.49,-127.1 0,-20.25 -9.37,-40.12 -33.37,-40.12 -33.37,0 -56.99,37.12 -56.99,141.72 0,12 0.38,25.12 1.13,39.37 -13.12,12 -28.12,23.24 -44.24,33.37 -4.13,-52.87 -32.99,-98.98 -95.23,-98.98 -81.73,0 -124.1,73.11 -124.1,147.72 0,1.49 0,3.37 0,4.87 -19.87,-0.75 -40.49,-3 -61.11,-7.12l-7.5 29.61zm227.58 64.87c35.61,-19.88 57.73,-68.99 60.36,-117.73 16.5,-10.5 31.49,-22.12 45.36,-34.12 0,4.88 0.38,9.75 0.38,14.25 0,105.73 -43.87,181.84 -117.35,181.84 -65.24,0 -101.23,-48.37 -111.73,-103.48 59.24,-4.12 112.1,-20.25 157.09,-43.87 -7.12,29.62 -24.74,56.99 -52.86,73.49l18.75 29.62zm37.86 -128.6c-46.49,24.37 -102.35,39.74 -163.84,41.62 0,-2.63 -0.37,-5.25 -0.37,-7.5 0,-65.24 32.24,-128.98 91.48,-128.98 47.99,0 72.73,41.99 72.73,87.73 0,2.63 0,4.88 0,7.13zm136.85 -187.09c0,35.25 -12.75,70.11 -34.87,101.61 -1.5,-24.75 -2.25,-45.74 -2.25,-62.99 0,-37.49 4.88,-57.36 23.62,-57.36 9,0 13.5,8.62 13.5,18.74zm4.12 121.48c-2.25,25.49 -16.87,116.22 -28.49,186.71 -7.5,26.24 -15.37,63.73 -15.37,92.6 0,1.5 0,2.63 0,3.75l25.12 0 21.74 -129.72c7.5,15 22.12,21.37 37.87,21.37 46.11,0 68.98,-42.74 86.23,-88.11 0,-2.25 -8.25,-5.25 -10.5,-5.25 -13.87,36.75 -31.49,69.36 -64.11,76.86 21.37,-27.36 35.62,-74.6 35.62,-110.97 0,-28.87 -9,-50.99 -29.99,-50.99 -12,0 -23.25,9 -33,23.99l3 -20.24 -28.12 0zm15 80.6c9.37,-37.11 21,-57.36 32.24,-57.36 6,0 8.25,9.75 8.25,23.62 0,34.49 -15.75,95.98 -32.99,95.98 -10.12,0 -13.12,-11.25 -13.12,-23.24 0,-2.63 0,-4.88 0.37,-7.13l5.25 -31.87zm-55.86 182.97c0,-1.5 0.37,-2.63 0.75,-4.5 -0.38,1.87 -0.75,3.37 -0.75,4.5zm-1.5 10.12c0,-0.75 0.37,-3 0.75,-5.25 -0.38,2.63 -0.75,4.5 -0.75,5.25zm176.58 -273.69c-6.37,26.99 -22.87,86.6 -22.87,128.22 0,25.87 6.75,44.62 27,44.62 30.74,0 43.86,-43.5 60.36,-86.24 0,0 0,-0.37 0,-0.37 0,-2.25 -8.62,-4.88 -10.5,-4.88 -16.49,43.12 -28.87,64.12 -38.61,64.12 -3.38,0 -7.5,-1.88 -7.5,-12.75 0,-30.74 10.87,-74.24 23.99,-132.72l-31.87 0zm22.13 -21.75c16.49,0 26.24,-15.75 26.24,-29.24 0,-10.5 -5.25,-19.5 -17.62,-19.5 -16.5,0 -26.25,16.12 -26.25,29.62 0,10.12 5.63,19.12 17.63,19.12zm47.61 192.71c2.62,-21 6,-42.74 9.37,-64.11l5.63 0c6,22.87 5.62,65.99 35.99,65.99 26.24,0 43.86,-43.5 60.36,-86.24 0,-2.25 -8.25,-5.25 -10.5,-5.25 -16.49,43.12 -32.61,61.49 -41.61,61.49 -10.5,0 -8.25,-26.62 -19.87,-43.86 28.87,-16.13 47.99,-52.49 47.99,-77.24 0,-14.99 -6.75,-25.49 -22.12,-25.49 -16.5,0 -31.5,15.37 -43.49,40.49l5.99 -31.12c23.25,-28.49 55.49,-79.86 55.49,-110.23 0,-14.24 -7.12,-23.62 -25.87,-23.62 -11.24,0 -24.37,7.13 -31.49,23.25 -15.37,34.87 -31.87,125.97 -44.99,205.46 0,0 -11.62,30.74 -11.62,60.36 0,3.37 0,6.75 0.37,10.12l30.37 0zm54.36 -147.72c3.38,0.75 4.5,3.75 4.5,7.5 0,14.25 -17.24,43.12 -33.74,56.61 -3.37,-1.12 -7.5,-2.25 -12,-2.25l1.88 -11.62c16.12,-37.49 28.49,-50.24 37.49,-50.24 0.75,0 1.12,0 1.87,0zm7.88 -118.85c-4.5,22.12 -16.5,49.49 -27.37,69.74 13.49,-62.24 18.37,-77.98 24.37,-77.98 1.87,0 3.37,1.87 3.37,5.24 0,0.75 -0.37,1.88 -0.37,3zm91.1 238.45c-17.24,0 -23.62,-17.99 -23.62,-40.49 0,-1.87 0,-3.75 0,-5.62 44.24,-7.13 66.74,-43.12 66.74,-69.74 0,-17.25 -9.37,-30.74 -28.12,-30.74 -41.99,0 -70.11,62.23 -70.11,113.22 0,35.25 13.5,65.24 46.11,65.24 36.75,0 55.49,-38.99 74.24,-88.11 0,-2.25 -8.25,-5.25 -10.5,-5.25 -14.25,38.25 -32.62,61.49 -54.74,61.49zm12 -123.35c3.75,0 6,3.75 6,9.38 0,13.87 -12.37,39.74 -40.49,53.61 4.5,-31.12 19.12,-62.99 34.49,-62.99z"/>
 </g>
</svg>
